<svg xmlns="http://www.w3.org/2000/svg" viewBox="0 0 240 240" width="240" height="240">
  <defs>
    <radialGradient id="apBody" cx="0.4" cy="0.34" r="0.78">
      <stop offset="0" stop-color="#ff7a6e"/>
      <stop offset="0.55" stop-color="#e8241f"/>
      <stop offset="1" stop-color="#9c0c11"/>
    </radialGradient>
    <linearGradient id="apLeaf" x1="0" y1="0" x2="1" y2="1">
      <stop offset="0" stop-color="#54c45f"/>
      <stop offset="1" stop-color="#2c7d36"/>
    </linearGradient>
  </defs>
  <ellipse cx="120" cy="214" rx="68" ry="13" fill="#000000" opacity="0.26"/>
  <path d="M120 72 C96 50 58 56 48 94 C39 130 58 188 96 202 C112 208 128 208 144 202 C182 188 201 130 192 94 C182 56 144 50 120 72 Z" fill="url(#apBody)"/>
  <ellipse cx="86" cy="106" rx="22" ry="31" fill="#ffffff" opacity="0.26"/>
  <path d="M120 72 C120 52 117 40 124 28" stroke="#6b3f1d" stroke-width="7" fill="none" stroke-linecap="round"/>
  <path d="M126 42 C152 28 182 34 182 34 C182 34 173 64 145 66 C132 67 123 55 126 42 Z" fill="url(#apLeaf)"/>
  <path d="M133 50 C148 46 168 44 168 44" stroke="#236b2d" stroke-width="2.5" fill="none" stroke-linecap="round"/>
</svg>
