<svg xmlns="http://www.w3.org/2000/svg" viewBox="0 0 320 320" width="320" height="320">
  <defs>
    <radialGradient id="co2bg" cx="0.5" cy="0.38" r="0.85">
      <stop offset="0" stop-color="#1c3d52"/>
      <stop offset="1" stop-color="#070f17"/>
    </radialGradient>
    <linearGradient id="co2ice" x1="0" y1="0" x2="0" y2="1">
      <stop offset="0" stop-color="#eef8ff"/>
      <stop offset="0.55" stop-color="#c2e2f3"/>
      <stop offset="1" stop-color="#8cb6d0"/>
    </linearGradient>
  </defs>
  <rect width="320" height="320" fill="url(#co2bg)"/>
  <!-- névoa de fundo -->
  <g fill="#ffffff" opacity="0.08">
    <ellipse cx="108" cy="118" rx="82" ry="42"/>
    <ellipse cx="214" cy="150" rx="74" ry="38"/>
    <ellipse cx="162" cy="92" rx="66" ry="34"/>
  </g>
  <!-- vapor subindo do gelo seco -->
  <g fill="#ffffff" opacity="0.15">
    <ellipse cx="138" cy="158" rx="44" ry="18"/>
    <ellipse cx="196" cy="140" rx="36" ry="15"/>
    <ellipse cx="162" cy="124" rx="52" ry="20"/>
    <ellipse cx="120" cy="138" rx="30" ry="13"/>
  </g>
  <!-- bloco de gelo seco -->
  <g>
    <path d="M92 200 L150 170 L230 192 L212 250 L116 258 Z" fill="url(#co2ice)" stroke="#6f9cb6" stroke-width="2"/>
    <path d="M150 170 L230 192 L216 210 L150 192 Z" fill="#ffffff" opacity="0.55"/>
    <path d="M92 200 L150 192 L150 170 Z" fill="#a9cfe3"/>
    <path d="M150 192 L150 258 L116 258 L92 200 Z" fill="#7ba6c0" opacity="0.45"/>
  </g>
</svg>
